%TF.GenerationSoftware,KiCad,Pcbnew,(6.0.0)*%
%TF.CreationDate,2022-01-08T11:25:39+00:00*%
%TF.ProjectId,DHT22,44485432-322e-46b6-9963-61645f706362,rev?*%
%TF.SameCoordinates,Original*%
%TF.FileFunction,Copper,L1,Top*%
%TF.FilePolarity,Positive*%
%FSLAX46Y46*%
G04 Gerber Fmt 4.6, Leading zero omitted, Abs format (unit mm)*
G04 Created by KiCad (PCBNEW (6.0.0)) date 2022-01-08 11:25:39*
%MOMM*%
%LPD*%
G01*
G04 APERTURE LIST*
G04 Aperture macros list*
%AMRoundRect*
0 Rectangle with rounded corners*
0 $1 Rounding radius*
0 $2 $3 $4 $5 $6 $7 $8 $9 X,Y pos of 4 corners*
0 Add a 4 corners polygon primitive as box body*
4,1,4,$2,$3,$4,$5,$6,$7,$8,$9,$2,$3,0*
0 Add four circle primitives for the rounded corners*
1,1,$1+$1,$2,$3*
1,1,$1+$1,$4,$5*
1,1,$1+$1,$6,$7*
1,1,$1+$1,$8,$9*
0 Add four rect primitives between the rounded corners*
20,1,$1+$1,$2,$3,$4,$5,0*
20,1,$1+$1,$4,$5,$6,$7,0*
20,1,$1+$1,$6,$7,$8,$9,0*
20,1,$1+$1,$8,$9,$2,$3,0*%
G04 Aperture macros list end*
%ADD10C,0.300000*%
%TA.AperFunction,NonConductor*%
%ADD11C,0.300000*%
%TD*%
%TA.AperFunction,ComponentPad*%
%ADD12O,2.616000X1.308000*%
%TD*%
%TA.AperFunction,SMDPad,CuDef*%
%ADD13RoundRect,0.150000X-0.150000X0.587500X-0.150000X-0.587500X0.150000X-0.587500X0.150000X0.587500X0*%
%TD*%
%TA.AperFunction,SMDPad,CuDef*%
%ADD14RoundRect,0.250000X0.250000X0.475000X-0.250000X0.475000X-0.250000X-0.475000X0.250000X-0.475000X0*%
%TD*%
%TA.AperFunction,SMDPad,CuDef*%
%ADD15R,0.650000X1.700000*%
%TD*%
%TA.AperFunction,SMDPad,CuDef*%
%ADD16RoundRect,0.200000X0.275000X-0.200000X0.275000X0.200000X-0.275000X0.200000X-0.275000X-0.200000X0*%
%TD*%
%TA.AperFunction,SMDPad,CuDef*%
%ADD17RoundRect,0.250000X-0.250000X-0.475000X0.250000X-0.475000X0.250000X0.475000X-0.250000X0.475000X0*%
%TD*%
%TA.AperFunction,SMDPad,CuDef*%
%ADD18RoundRect,0.150000X0.150000X-0.825000X0.150000X0.825000X-0.150000X0.825000X-0.150000X-0.825000X0*%
%TD*%
%TA.AperFunction,ComponentPad*%
%ADD19R,1.000000X1.000000*%
%TD*%
%TA.AperFunction,ComponentPad*%
%ADD20O,1.000000X1.000000*%
%TD*%
%TA.AperFunction,ViaPad*%
%ADD21C,0.508000*%
%TD*%
%TA.AperFunction,Conductor*%
%ADD22C,0.250000*%
%TD*%
G04 APERTURE END LIST*
D10*
D11*
X132012571Y-99861285D02*
X133012571Y-99504142D01*
X132012571Y-99147000D01*
X131512571Y-98289857D02*
X131512571Y-98147000D01*
X131584000Y-98004142D01*
X131655428Y-97932714D01*
X131798285Y-97861285D01*
X132084000Y-97789857D01*
X132441142Y-97789857D01*
X132726857Y-97861285D01*
X132869714Y-97932714D01*
X132941142Y-98004142D01*
X133012571Y-98147000D01*
X133012571Y-98289857D01*
X132941142Y-98432714D01*
X132869714Y-98504142D01*
X132726857Y-98575571D01*
X132441142Y-98647000D01*
X132084000Y-98647000D01*
X131798285Y-98575571D01*
X131655428Y-98504142D01*
X131584000Y-98432714D01*
X131512571Y-98289857D01*
X132869714Y-97147000D02*
X132941142Y-97075571D01*
X133012571Y-97147000D01*
X132941142Y-97218428D01*
X132869714Y-97147000D01*
X133012571Y-97147000D01*
X133012571Y-95647000D02*
X133012571Y-96504142D01*
X133012571Y-96075571D02*
X131512571Y-96075571D01*
X131726857Y-96218428D01*
X131869714Y-96361285D01*
X131941142Y-96504142D01*
X132869714Y-95004142D02*
X132941142Y-94932714D01*
X133012571Y-95004142D01*
X132941142Y-95075571D01*
X132869714Y-95004142D01*
X133012571Y-95004142D01*
X133012571Y-93504142D02*
X133012571Y-94361285D01*
X133012571Y-93932714D02*
X131512571Y-93932714D01*
X131726857Y-94075571D01*
X131869714Y-94218428D01*
X131941142Y-94361285D01*
D12*
%TO.P,U3,VDD,VDD*%
%TO.N,VCC*%
X102616000Y-96520000D03*
%TO.P,U3,DATA,DATA*%
%TO.N,Net-(R4-Pad2)*%
X102616000Y-93980000D03*
%TO.P,U3,NC,NULL*%
%TO.N,unconnected-(U3-PadNC)*%
X102616000Y-91440000D03*
%TO.P,U3,GND,GND*%
%TO.N,GND*%
X102616000Y-88900000D03*
%TD*%
D13*
%TO.P,D1,1,A1*%
%TO.N,/A*%
X124775000Y-87073500D03*
%TO.P,D1,2,A2*%
%TO.N,/B*%
X122875000Y-87073500D03*
%TO.P,D1,3,common*%
%TO.N,GND*%
X123825000Y-88948500D03*
%TD*%
D14*
%TO.P,C2,1*%
%TO.N,VCC*%
X111440000Y-98298000D03*
%TO.P,C2,2*%
%TO.N,GND*%
X109540000Y-98298000D03*
%TD*%
D15*
%TO.P,U1,1,~{RESET}/PB5*%
%TO.N,unconnected-(U1-Pad1)*%
X113538000Y-87282000D03*
%TO.P,U1,2,XTAL1/PB3*%
%TO.N,Net-(R4-Pad2)*%
X112268000Y-87282000D03*
%TO.P,U1,3,XTAL2/PB4*%
%TO.N,unconnected-(U1-Pad3)*%
X110998000Y-87282000D03*
%TO.P,U1,4,GND*%
%TO.N,GND*%
X109728000Y-87282000D03*
%TO.P,U1,5,AREF/PB0*%
%TO.N,Net-(R1-Pad2)*%
X109728000Y-94582000D03*
%TO.P,U1,6,PB1*%
%TO.N,Net-(R3-Pad2)*%
X110998000Y-94582000D03*
%TO.P,U1,7,PB2*%
%TO.N,Net-(R2-Pad2)*%
X112268000Y-94582000D03*
%TO.P,U1,8,VCC*%
%TO.N,VCC*%
X113538000Y-94582000D03*
%TD*%
D16*
%TO.P,R1,1*%
%TO.N,VCC*%
X120396000Y-99250000D03*
%TO.P,R1,2*%
%TO.N,Net-(R1-Pad2)*%
X120396000Y-97600000D03*
%TD*%
D17*
%TO.P,C1,1*%
%TO.N,VCC*%
X117795000Y-86614000D03*
%TO.P,C1,2*%
%TO.N,GND*%
X119695000Y-86614000D03*
%TD*%
D18*
%TO.P,U2,1,RO*%
%TO.N,Net-(R2-Pad2)*%
X116332000Y-95439000D03*
%TO.P,U2,2,~{RE}*%
%TO.N,Net-(R3-Pad2)*%
X117602000Y-95439000D03*
%TO.P,U2,3,DE*%
X118872000Y-95439000D03*
%TO.P,U2,4,DI*%
%TO.N,Net-(R1-Pad2)*%
X120142000Y-95439000D03*
%TO.P,U2,5,GND*%
%TO.N,GND*%
X120142000Y-90489000D03*
%TO.P,U2,6,A*%
%TO.N,/A*%
X118872000Y-90489000D03*
%TO.P,U2,7,B*%
%TO.N,/B*%
X117602000Y-90489000D03*
%TO.P,U2,8,VCC*%
%TO.N,VCC*%
X116332000Y-90489000D03*
%TD*%
D16*
%TO.P,R2,1*%
%TO.N,VCC*%
X114554000Y-99250000D03*
%TO.P,R2,2*%
%TO.N,Net-(R2-Pad2)*%
X114554000Y-97600000D03*
%TD*%
%TO.P,R3,1*%
%TO.N,VCC*%
X117602000Y-99250000D03*
%TO.P,R3,2*%
%TO.N,Net-(R3-Pad2)*%
X117602000Y-97600000D03*
%TD*%
%TO.P,R4,1*%
%TO.N,VCC*%
X106426000Y-95948000D03*
%TO.P,R4,2*%
%TO.N,Net-(R4-Pad2)*%
X106426000Y-94298000D03*
%TD*%
D19*
%TO.P,J2,1,Pin_1*%
%TO.N,VCC*%
X132080000Y-86360000D03*
D20*
%TO.P,J2,2,Pin_2*%
%TO.N,/B*%
X132080000Y-87630000D03*
%TO.P,J2,3,Pin_3*%
%TO.N,/A*%
X132080000Y-88900000D03*
%TO.P,J2,4,Pin_4*%
%TO.N,GND*%
X132080000Y-90170000D03*
%TD*%
D21*
%TO.N,GND*%
X125069600Y-88849200D03*
X119735600Y-86614000D03*
X109677200Y-89052400D03*
X119735600Y-92202000D03*
X109524800Y-98298000D03*
%TD*%
D22*
%TO.N,GND*%
X123924300Y-88849200D02*
X123825000Y-88948500D01*
X125069600Y-88849200D02*
X123924300Y-88849200D01*
%TO.N,VCC*%
X131281960Y-85561960D02*
X118847040Y-85561960D01*
X132080000Y-86360000D02*
X131281960Y-85561960D01*
X118847040Y-85561960D02*
X117795000Y-86614000D01*
%TO.N,/B*%
X129362918Y-87630000D02*
X132080000Y-87630000D01*
X126034800Y-86621680D02*
X128354598Y-86621680D01*
X125424600Y-86011480D02*
X126034800Y-86621680D01*
X123937020Y-86011480D02*
X125424600Y-86011480D01*
X122875000Y-87073500D02*
X123937020Y-86011480D01*
X128354598Y-86621680D02*
X129362918Y-87630000D01*
%TO.N,/A*%
X128168400Y-87071200D02*
X129997200Y-88900000D01*
X124777300Y-87071200D02*
X128168400Y-87071200D01*
X129997200Y-88900000D02*
X132080000Y-88900000D01*
X124775000Y-87073500D02*
X124777300Y-87071200D01*
X124291428Y-87073500D02*
X124775000Y-87073500D01*
X122464928Y-88900000D02*
X124291428Y-87073500D01*
X120084928Y-88900000D02*
X122464928Y-88900000D01*
%TO.N,/B*%
X121810500Y-88138000D02*
X122875000Y-87073500D01*
X117602000Y-90112928D02*
X119576928Y-88138000D01*
X119576928Y-88138000D02*
X121810500Y-88138000D01*
X117602000Y-90489000D02*
X117602000Y-90112928D01*
%TO.N,VCC*%
X106426000Y-95948000D02*
X106616000Y-95758000D01*
X105854000Y-96520000D02*
X106426000Y-95948000D01*
X114762071Y-92058929D02*
X110427049Y-92058929D01*
X110427049Y-92058929D02*
X108966000Y-93519978D01*
X109601000Y-96393000D02*
X110490000Y-96393000D01*
X117795000Y-86614000D02*
X116332000Y-88077000D01*
X112392000Y-99250000D02*
X111440000Y-98298000D01*
X114554000Y-99250000D02*
X117602000Y-99250000D01*
X108966000Y-95758000D02*
X109601000Y-96393000D01*
X113538000Y-94582000D02*
X113538000Y-95107000D01*
X114554000Y-99250000D02*
X112392000Y-99250000D01*
X111440000Y-97343000D02*
X111440000Y-98298000D01*
X116332000Y-90489000D02*
X114762071Y-92058929D01*
X108966000Y-93519978D02*
X108966000Y-95758000D01*
X120396000Y-99250000D02*
X117602000Y-99250000D01*
X105854000Y-96520000D02*
X102616000Y-96520000D01*
X106616000Y-95758000D02*
X108966000Y-95758000D01*
X116332000Y-88077000D02*
X116332000Y-90489000D01*
X110490000Y-96393000D02*
X111440000Y-97343000D01*
X113538000Y-95136022D02*
X113538000Y-94582000D01*
%TO.N,GND*%
X109728000Y-89001600D02*
X109677200Y-89052400D01*
X120142000Y-91795600D02*
X119735600Y-92202000D01*
X120142000Y-90489000D02*
X120142000Y-91795600D01*
X109728000Y-87282000D02*
X109728000Y-89001600D01*
%TO.N,Net-(R1-Pad2)*%
X117587521Y-92508449D02*
X120142000Y-95062928D01*
X109728000Y-94057000D02*
X111276551Y-92508449D01*
X120142000Y-97346000D02*
X120396000Y-97600000D01*
X120142000Y-95062928D02*
X120142000Y-95439000D01*
X120142000Y-95439000D02*
X120142000Y-97346000D01*
X109728000Y-94582000D02*
X109728000Y-94057000D01*
X111276551Y-92508449D02*
X117587521Y-92508449D01*
%TO.N,Net-(R2-Pad2)*%
X116332000Y-95822000D02*
X114554000Y-97600000D01*
X112268000Y-94057000D02*
X112917511Y-93407489D01*
X112917511Y-93407489D02*
X114300489Y-93407489D01*
X114300489Y-93407489D02*
X116332000Y-95439000D01*
X112268000Y-94582000D02*
X112268000Y-94057000D01*
X116332000Y-95439000D02*
X116332000Y-95822000D01*
%TO.N,Net-(R3-Pad2)*%
X110998000Y-94582000D02*
X110998000Y-94057000D01*
X112097031Y-92957969D02*
X115563969Y-92957969D01*
X110998000Y-94057000D02*
X112097031Y-92957969D01*
X118872000Y-95439000D02*
X117602000Y-95439000D01*
X117602000Y-94996000D02*
X117602000Y-95439000D01*
X117602000Y-95439000D02*
X117602000Y-97600000D01*
X115563969Y-92957969D02*
X117602000Y-94996000D01*
%TO.N,Net-(R4-Pad2)*%
X112268000Y-88456000D02*
X106426000Y-94298000D01*
X106108000Y-93980000D02*
X102616000Y-93980000D01*
X112268000Y-87282000D02*
X112268000Y-88456000D01*
X106426000Y-94298000D02*
X106108000Y-93980000D01*
%TO.N,/A*%
X118872000Y-90489000D02*
X118872000Y-90112928D01*
X118872000Y-90112928D02*
X120084928Y-88900000D01*
%TD*%
M02*
