%TF.GenerationSoftware,KiCad,Pcbnew,(6.0.0)*%
%TF.CreationDate,2022-01-08T11:25:39+00:00*%
%TF.ProjectId,DHT22,44485432-322e-46b6-9963-61645f706362,rev?*%
%TF.SameCoordinates,Original*%
%TF.FileFunction,Legend,Bot*%
%TF.FilePolarity,Positive*%
%FSLAX46Y46*%
G04 Gerber Fmt 4.6, Leading zero omitted, Abs format (unit mm)*
G04 Created by KiCad (PCBNEW (6.0.0)) date 2022-01-08 11:25:39*
%MOMM*%
%LPD*%
G01*
G04 APERTURE LIST*
%ADD10C,0.150000*%
%ADD11C,0.254000*%
%ADD12C,0.120000*%
G04 APERTURE END LIST*
D10*
%TO.C,U3*%
X102184803Y-92110074D02*
X102822224Y-92110074D01*
X102897215Y-92147570D01*
X102934710Y-92185065D01*
X102972205Y-92260056D01*
X102972205Y-92410037D01*
X102934710Y-92485028D01*
X102897215Y-92522523D01*
X102822224Y-92560018D01*
X102184803Y-92560018D01*
X102184803Y-92859981D02*
X102184803Y-93347420D01*
X102484766Y-93084953D01*
X102484766Y-93197439D01*
X102522261Y-93272430D01*
X102559757Y-93309925D01*
X102634747Y-93347420D01*
X102822224Y-93347420D01*
X102897215Y-93309925D01*
X102934710Y-93272430D01*
X102972205Y-93197439D01*
X102972205Y-92972467D01*
X102934710Y-92897476D01*
X102897215Y-92859981D01*
%TO.C,J2*%
X132413333Y-91400380D02*
X132413333Y-92114666D01*
X132460952Y-92257523D01*
X132556190Y-92352761D01*
X132699047Y-92400380D01*
X132794285Y-92400380D01*
X131984761Y-91495619D02*
X131937142Y-91448000D01*
X131841904Y-91400380D01*
X131603809Y-91400380D01*
X131508571Y-91448000D01*
X131460952Y-91495619D01*
X131413333Y-91590857D01*
X131413333Y-91686095D01*
X131460952Y-91828952D01*
X132032380Y-92400380D01*
X131413333Y-92400380D01*
D11*
%TO.C,U3*%
X105156000Y-85090000D02*
X105156000Y-92710000D01*
X105156000Y-92710000D02*
X105156000Y-100330000D01*
X105156000Y-100330000D02*
X125476000Y-100330000D01*
X105156000Y-85090000D02*
X125476000Y-85090000D01*
X125476000Y-100330000D02*
X125476000Y-85090000D01*
X125476000Y-100330000D02*
X130556000Y-97790000D01*
X130556000Y-97790000D02*
X130556000Y-87630000D01*
X130556000Y-87630000D02*
X125476000Y-85090000D01*
D12*
%TO.C,J2*%
X131772470Y-90865000D02*
X130970000Y-90865000D01*
X133190000Y-87120000D02*
X132643471Y-87120000D01*
X133190000Y-87120000D02*
X133190000Y-90865000D01*
X133190000Y-90865000D02*
X132387530Y-90865000D01*
X133190000Y-85600000D02*
X132080000Y-85600000D01*
X130970000Y-87120000D02*
X130970000Y-90865000D01*
X131516529Y-87120000D02*
X130970000Y-87120000D01*
X133190000Y-86360000D02*
X133190000Y-85600000D01*
%TD*%
M02*
